<?xml version="1.0" encoding="utf-8"?>
<!-- Generator: Adobe Illustrator 24.0.0, SVG Export Plug-In . SVG Version: 6.00 Build 0)  -->
<svg version="1.1" id="Layer_1" xmlns="http://www.w3.org/2000/svg" xmlns:xlink="http://www.w3.org/1999/xlink" x="0px" y="0px"
	 viewBox="0 0 68 80" style="enable-background:new 0 0 68 80;" xml:space="preserve">
<style type="text/css">
	.st0{fill:#043F7C;}
</style>
<path class="st0" d="M67.2,20.6c-0.1-2.1-0.1-4.1-0.1-6.1c0-1.6-1.2-2.9-2.9-2.9c-12,0-21-3.4-28.6-10.8c-1.1-1.1-2.9-1.1-4,0
	C24.1,8.2,15,11.6,3.1,11.6c-1.6,0-2.9,1.2-2.9,2.9c0,2,0,4-0.1,6.1c-0.4,20.1-1,47.6,32.6,59.2l1,0.2l1-0.2
	C68.1,68.2,67.6,40.8,67.2,20.6z M31.4,48.4c-0.6,0.5-1.2,0.8-2,0.8h-0.1c-0.8,0-1.5-0.4-2-1l-8.9-9.9l4.3-3.8l7,7.7l15.5-14.7
	l3.9,4.2L31.4,48.4z"/>
</svg>
