<?xml version="1.0" encoding="utf-8"?>
<!-- Generator: Adobe Illustrator 24.0.0, SVG Export Plug-In . SVG Version: 6.00 Build 0)  -->
<svg version="1.1" id="Layer_1" xmlns="http://www.w3.org/2000/svg" xmlns:xlink="http://www.w3.org/1999/xlink" x="0px" y="0px"
	 viewBox="0 0 80 80" style="enable-background:new 0 0 80 80;" xml:space="preserve">
<style type="text/css">
	.st0{fill:#043F7C;}
</style>
<path class="st0" d="M42.5,0c-5.2,0-9.4,4.2-9.4,9.4c0,5.2,4.2,9.4,9.4,9.4s9.4-4.2,9.4-9.4C51.9,4.2,47.7,0,42.5,0z"/>
<path class="st0" d="M75.3,35.5v2.3c0,2.9-2.5,5.2-5.7,4.5c-3.1-10.7-13-18.6-24.7-18.6H29.2c-0.7,0-1.3-0.3-1.7-0.7
	c-2.2-2.5-5.4-3.9-8.8-3.9h-7c-1.5,0-2.6,1.4-2.3,2.9l2.4,9.8c-1.7,1.8-3.2,3.8-4.3,6.1c-4.7,0-7.5,3.3-7.5,7v6.9
	c0,4.4,3.4,6.1,7.1,8.7c1.5,3.1,3.5,5.8,6,8.2c0.3,0.3,0.9,1,0.9,1.9V76c0,2.2,1.8,4,4,4h8.4c2.2,0,4-1.5,4-4.7h14.4
	c0,3.2,1.8,4.7,4,4.7h8.4c2.2,0,4-1.8,4-4c0-3.5-0.4-6,2.1-8.5c4.5-4.7,7.3-11,7.3-18c0-0.8,0-1.6-0.1-2.4c0,0,0.1,0,0.1,0
	c5.1,0,9.4-4.2,9.4-9.4v-2.3C80,32.4,75.3,32.4,75.3,35.5z M16.4,44.8c-1.3,0-2.3-1-2.3-2.3c0-1.3,1-2.3,2.3-2.3
	c1.3,0,2.3,1,2.3,2.3C18.8,43.8,17.7,44.8,16.4,44.8z M44.8,37.8H34.2c-3.1,0-3.1-4.7,0-4.7h10.7C47.9,33.1,47.9,37.8,44.8,37.8z"/>
</svg>
