<?xml version="1.0" encoding="utf-8"?>
<!-- Generator: Adobe Illustrator 24.0.0, SVG Export Plug-In . SVG Version: 6.00 Build 0)  -->
<svg version="1.1" id="Layer_1" xmlns="http://www.w3.org/2000/svg" xmlns:xlink="http://www.w3.org/1999/xlink" x="0px" y="0px"
	 viewBox="0 0 80 80" style="enable-background:new 0 0 80 80;" xml:space="preserve">
<style type="text/css">
	.st0{fill:#043F7C;}
</style>
<path class="st0" d="M74.5,65.5H61.8c-8,0-14.5-6.5-14.5-14.5s6.5-14.5,14.5-14.5h12.7c1,0,1.8-0.8,1.8-1.8v-5.5
	c0-3.8-3-6.9-6.7-7.2L59.2,3.6c-1-1.7-2.5-2.9-4.4-3.4C53-0.3,51,0,49.4,1L13.6,21.8H7.3c-4,0-7.3,3.3-7.3,7.3v43.6
	c0,4,3.3,7.3,7.3,7.3h61.8c4,0,7.3-3.3,7.3-7.3v-5.5C76.4,66.3,75.5,65.5,74.5,65.5z M61.5,14.9l4,6.9H49.6L61.5,14.9z M20.8,21.8
	L51.2,4.1C52,3.6,53,3.5,53.9,3.8c0.9,0.2,1.7,0.8,2.2,1.7l0,0L28,21.8H20.8z"/>
<path class="st0" d="M74.5,40H61.8c-6,0-10.9,4.9-10.9,10.9c0,6,4.9,10.9,10.9,10.9h12.7c3,0,5.5-2.4,5.5-5.5V45.5
	C80,42.4,77.6,40,74.5,40z M61.8,54.5c-2,0-3.6-1.6-3.6-3.6c0-2,1.6-3.6,3.6-3.6c2,0,3.6,1.6,3.6,3.6C65.5,52.9,63.8,54.5,61.8,54.5
	z"/>
</svg>
