<svg viewBox="0 0 240 171" xmlns="http://www.w3.org/2000/svg"><defs><linearGradient x1="0%" y1="49.969%" x2="99.975%" y2="49.969%" id="No_Buses_Found__a"><stop stop-color="#FBD9D9" stop-opacity="0" offset="5.102%"/><stop stop-color="#FBD9D9" offset="69.39%"/></linearGradient><radialGradient cx="49.831%" cy="50.245%" fx="49.831%" fy="50.245%" r="50.132%" gradientTransform="scale(1 .99684) rotate(.255 .14 .503)" id="No_Buses_Found__b"><stop stop-color="#F6B2B3" offset="10.2%"/><stop stop-color="#F6B2B3" offset="13.78%"/></radialGradient><linearGradient x1=".073%" y1="49.952%" x2="100.046%" y2="49.952%" id="No_Buses_Found__c"><stop stop-color="#BFD2E8" offset="31.47%"/><stop stop-color="#BFD2E8" stop-opacity=".102" offset="93%"/><stop stop-color="#BFD2E8" stop-opacity="0" offset="100%"/></linearGradient><linearGradient x1="16.602%" y1="69.209%" x2="87.446%" y2="-25.199%" id="No_Buses_Found__d"><stop stop-color="#F6B2B3" stop-opacity="0" offset="0%"/><stop stop-color="#F48F90" offset="100%"/></linearGradient><linearGradient x1="-.1%" y1="50.03%" x2="99.833%" y2="50.03%" id="No_Buses_Found__e"><stop stop-color="#BFD2E8" stop-opacity="0" offset="1.02%"/><stop stop-color="#BFD2E8" offset="71.07%"/></linearGradient><linearGradient x1="29.22%" y1="10.978%" x2="71.594%" y2="95.708%" id="No_Buses_Found__f"><stop stop-color="#BFD2E8" offset="28.93%"/><stop stop-color="#BFD2E8" stop-opacity="0" offset="100%"/></linearGradient><linearGradient x1="31.819%" y1="-24.747%" x2="62.046%" y2="114.712%" id="No_Buses_Found__g"><stop stop-color="#9CBADC" stop-opacity="0" offset="0%"/><stop stop-color="#97B6DA" stop-opacity=".06" offset="2.346%"/><stop stop-color="#78A0D0" stop-opacity=".445" offset="17.39%"/><stop stop-color="#6593CA" stop-opacity=".772" offset="30.17%"/><stop stop-color="#5E8EC8" offset="39.09%"/><stop stop-color="#6F9ACD" offset="49.11%"/><stop stop-color="#9AB9DB" offset="68.83%"/><stop stop-color="#9CBADC" offset="69.54%"/><stop stop-color="#A1BEDE" stop-opacity=".823" offset="74.85%"/><stop stop-color="#B0C8E2" stop-opacity=".608" offset="81.28%"/><stop stop-color="#C8D9E9" stop-opacity=".374" offset="88.3%"/><stop stop-color="#EAF1F3" stop-opacity=".127" offset="95.69%"/><stop stop-color="#FFFFF9" stop-opacity="0" offset="99.49%"/></linearGradient><linearGradient x1="-1.497%" y1="27.059%" x2="101.382%" y2="74.181%" id="No_Buses_Found__h"><stop stop-color="#F6F8F9" stop-opacity="0" offset="0%"/><stop stop-color="#F6F8F9" offset="34.57%"/><stop stop-color="#F6F5F6" stop-opacity=".607" offset="60.28%"/><stop stop-color="#F7ECED" stop-opacity=".315" offset="79.42%"/><stop stop-color="#F9DCDC" stop-opacity=".055" offset="96.38%"/><stop stop-color="#F9D8D8" stop-opacity="0" offset="100%"/></linearGradient><linearGradient x1="50.54%" y1=".056%" x2="50.54%" y2="99.93%" id="No_Buses_Found__i"><stop stop-color="#435887" offset="8.629%"/><stop stop-color="#455B8B" offset="20.29%"/><stop stop-color="#4D6CA1" offset="86.56%"/><stop stop-color="#5E8EC8" stop-opacity="0" offset="99.46%"/></linearGradient><linearGradient x1="49.61%" y1=".025%" x2="49.61%" y2="100.159%" id="No_Buses_Found__j"><stop stop-color="#425685" offset="41.79%"/><stop stop-color="#425685" stop-opacity=".141" offset="91.77%"/><stop stop-color="#425685" stop-opacity="0" offset="100%"/></linearGradient><linearGradient x1="49.145%" y1="-.092%" x2="49.145%" y2="99.954%" id="No_Buses_Found__k"><stop stop-color="#5E8EC8" offset="9.14%"/><stop stop-color="#5E8EC8" stop-opacity="0" offset="98.39%"/></linearGradient><linearGradient x1="52.85%" y1="55.38%" x2="54.17%" y2="55.38%" id="No_Buses_Found__l"><stop stop-color="#5E8EC8" offset="9.14%"/><stop stop-color="#5E8EC8" stop-opacity="0" offset="98.39%"/></linearGradient><linearGradient x1="54.17%" y1="44.35%" x2="56.48%" y2="44.35%" id="No_Buses_Found__m"><stop stop-color="#5E8EC8" offset="9.14%"/><stop stop-color="#5E8EC8" stop-opacity="0" offset="98.39%"/></linearGradient><linearGradient x1="-.648%" y1="49.871%" x2="98.539%" y2="49.871%" id="No_Buses_Found__n"><stop stop-color="#5E8EC8" offset="9.14%"/><stop stop-color="#5E8EC8" stop-opacity="0" offset="98.39%"/></linearGradient><linearGradient x1="-1.614%" y1="50.062%" x2="99.37%" y2="50.062%" id="No_Buses_Found__o"><stop stop-color="#5E8EC8" offset="9.14%"/><stop stop-color="#5E8EC8" stop-opacity="0" offset="98.39%"/></linearGradient><linearGradient x1="22.8%" y1="-75.718%" x2="82.588%" y2="162.074%" id="No_Buses_Found__p"><stop stop-color="#425685" offset="41.79%"/><stop stop-color="#425685" stop-opacity="0" offset="82.23%"/></linearGradient></defs><g fill="none" fill-rule="evenodd"><path d="M34.213 78.332c19.2-13.209 25.123-37.17 39.727-54.27 11.132-13.208 34.111-19.557 44.937-2.559 3.676 5.734 3.778 15.154 9.191 19.557 6.638 5.427 12.97-3.686 20.426 1.024 7.66 4.813 30.842 19.148 53.31 30.105-12.868 15.052-58.519 11.775-68.527 11.263-8.477-.512-16.75-1.229-25.022-.512-12.05 1.126-24.612.922-36.766 1.536-6.127.307-11.846.614-17.872 1.536-3.983.614-9.191 1.74-13.277 1.024-3.268-.614-5.82-2.867-8.17-4.608" fill="url(#No_Buses_Found__a)"/><path d="M115.813 44.542c-.204 5.017-4.494 8.806-9.498 8.499-5.004-.307-8.885-4.608-8.579-9.625.204-5.018 4.494-8.806 9.498-8.5 5.004.41 8.783 4.71 8.579 9.626z" fill="url(#No_Buses_Found__b)"/><path d="M102.128 80.175l83.642-1.33-.715 64.815-100.698-21.4 37.175-21.81s21.345-13.312-19.404-20.275z" fill="url(#No_Buses_Found__c)"/><path d="M2.553 82.838c-1.532.102-2.349.102-2.349.102 20.12 2.765 49.022 5.837 36.256 19.762-11.337 12.39 52.187 38.194 39.42 34.508-13.276-3.891 40.852-41.675 53.516-41.88l-4.902-6.041c-25.43-11.366-107.132-7.27-121.94-6.451z" fill="url(#No_Buses_Found__d)"/><path d="M96.613 71.267c-.51.512-1.226.307-1.634-.307-2.758-4.506-4.698 5.53-8.885 3.993-3.677-1.33-5.72-5.836-8.681-8.806-3.983-3.993-12.051-16.793-16.75-16.485-6.331.41-11.642 14.335-17.36 18.636-3.269 2.457-6.23 6.553-9.192 10.137-1.022 1.228-.409 3.89.919 3.788 14.298-.716 55.149-.614 81.804 2.253 1.226.102 1.94-2.253 1.021-3.686l-.306-.512c-.409-.615-1.021-.82-1.532-.41-6.332 4.608-11.847-15.461-19.404-8.6z" fill="url(#No_Buses_Found__e)"/><path d="M123.779 79.356c4.085 1.331 8.987.41 13.174.615 10.52.512 20.426-24.882 30.945-24.882 12.46 0 7.966 40.446 33.804 16.997 10.417 2.355 24.92 14.028 30.843 12.697 5.106-1.126 10.11 4.096 4.595 8.499-3.983 3.174-7.66 3.072-10.008 7.577-1.123 2.15.613 2.458-2.043 4.71-2.042 1.844-5.82 2.458-8.272 3.38-6.638 2.355-28.391-4.71-31.557 8.089-9.192 37.067-29.209 15.666-51.881 22.22-7.251 2.047-14.298 5.426-21.039 9.01 3.677-13.004-63.727-22.22-58.314-29.08 29.617-2.15 38.195-13.209 45.65-13.72 9.294-.615 24.307 3.378 25.226-5.018.613-5.94-4.391-19.353 2.043-21.094.408.615.817 1.229 1.021 1.946" fill="url(#No_Buses_Found__f)"/><path d="M105.906 121.338s-11.642-2.662 15.217-12.287c11.337-4.096 41.77-19.046 9.192-24.677-12.766-2.15-48.102-3.175-88.647-2.765-.204 0-.306-.307-.102-.512 1.021-.82 2.962-2.457 2.962-2.355-.102.205-2.758 1.843-3.677 2.56-.102.102-.102.307.102.307 55.558 2.662 93.345 8.704 82.417 14.13-10.927 6.554-69.344 14.029-76.085 29.798-1.838 4.3 10.621 22.526 73.634 45.463 48.715-27.442 49.94 13.311 100.085-16.895-24.613-3.482-97.021-23.551-115.098-32.767z" fill="url(#No_Buses_Found__g)"/><path d="M178.52 161.272l-94.163-32.766c1.226.307 43.609 19.967 91.711 33.688.92-.307 1.736-.614 2.451-.922z" fill="url(#No_Buses_Found__h)" opacity=".5"/><path d="M130.315 49.969c-1.838-.512-2.655 1.536-3.166 3.584-.204.921-.102 1.638-.409 2.56-.306.716-1.123 3.174-1.43 4.198-1.225 4.198.511 7.782.307 11.878-.204 5.427-3.574 4.095-5.004 8.294-.92 2.662-1.328 9.727-.409 12.39.409 1.126 1.226 1.638 1.43 2.867.306 1.433-.204 3.174 0 4.71.51 3.276 1.838 4.607 3.166 7.475 1.328 2.662 1.838 5.529 1.226 8.6-.205.922-.205 3.482-.103 4.301.715.82 2.451 0 3.268.308.103-3.38-.408-6.247.307-9.42 1.43.102 2.655-.206 3.676-1.537 1.226-1.638.613-3.584 1.43-5.222 1.022-2.048 2.247-.41 3.677.102 1.532.615 2.757.308 4.29 0 .816 2.15 0 10.547.101 13.107.92.102 2.35-.102 3.268-.205-.919-4.3.409-12.287.511-15.257 1.43-.102 2.758-.614 3.37-2.662.307-1.024 0-2.15.307-3.072.306-.717 1.225-.921 1.634-1.638 1.532-2.97.919-7.987-.92-10.24-1.225-1.536-2.144-1.433-2.553-3.89-.408-2.049.307-3.994.409-6.042.102-1.945.204-4.403-.715-5.939-1.123-1.843-1.838-1.433-2.043-4.403-.102-2.048 0-10.854-2.757-9.113-1.736 1.126-1.123 8.09-1.736 10.547-.817 3.89-1.124 7.167-1.226 11.468-.102 1.74-.102 4.096-.51 5.734-.511 2.048-1.634 1.638-2.145 3.38-.204-4.404-.306-5.735-2.86-8.5-2.553-2.867-.919-5.017-1.327-9.113-.409-3.89-2.86-3.89-2.86-7.987.204-1.536 1.94-10.649-.204-11.263z" fill="url(#No_Buses_Found__i)"/><path d="M14.196 1.229C8.68-.717 9.19 6.963 8.272 13.209c-.306 2.457 0 5.12-1.225 7.372-1.124 1.946-2.758 3.072-3.268 5.427-1.022 4.403-.102 9.728-.51 14.233-.41 4.813-.818 9.42-.818 14.233.102 4.813 2.962 8.601 2.451 13.619-.306 2.867-2.247 2.355-3.37 4.608-.92 1.638-.613 4.812-.613 6.758 0 1.024-.204 2.457 0 3.379.307 1.126 1.328 1.843 1.532 2.867.409 1.74-.715 4.3-.715 6.45 0 5.53.613 7.68 4.8 10.752 4.8 3.482 4.085 19.558 4.29 25.292 2.961.614 4.595.512 3.983-2.56-.103-.41-.613-10.24.51-16.486.409-1.945 0-4.812 1.124-6.45 1.225-1.844 3.063-1.946 3.983-4.301.817-2.048.51-3.994 1.838-5.837 1.327-1.945 2.757-2.355 3.472-4.812 1.226-4.608-.613-9.523.102-14.13.307-2.356 1.839-3.687 2.451-5.94.511-2.048 0-4.403-.306-6.553-.306-2.253-.817-4.608-1.838-6.553-1.124-2.15-3.575-3.277-4.596-5.325-1.94-3.584.102-9.932-.409-14.028-.306-2.355-2.042-3.993-2.45-6.246-.41-2.15.408-4.403.306-6.656-.205-3.89-2.656-5.734-2.451-9.932.102-1.946.612-4.096.102-6.041-.613-2.048-1.532-2.663-1.43-5.018-.613.205-.613.103-1.021-.102z" fill="url(#No_Buses_Found__j)" transform="translate(158.298)"/><path d="M15.013 1.638c-.307-.102-.409-.204-.817-.307C8.68-.614 9.19 7.065 8.272 13.311c-.306 2.458 0 5.12-1.225 7.373-1.124 1.945-2.758 3.072-3.268 5.427-1.022 4.403-.102 9.727-.51 14.233-.41 4.812-.818 9.42-.818 14.233.102 4.812 2.962 8.6 2.451 13.618-.306 2.867-2.247 2.355-3.37 4.608-.715 1.331-.613 3.686-.613 5.53 1.328.102 2.655-.41 3.983-1.639 2.655-2.457 1.021-5.325.817-8.294-.102-1.434.204-2.97.817-4.198.715-1.434 1.94-1.843 1.634-3.686-.204-1.024-.919-1.127-1.123-1.946-.204-.614 0-1.638 0-2.355 0-1.946 0-3.891.204-5.837.409-5.734 1.532-11.16 1.634-15.666 0-1.536.204-3.38-.102-4.71-.306-1.536-1.123-2.253-.51-3.789.612-1.536 1.838-2.15 2.144-3.89.306-1.742 0-3.687 0-5.428 0-1.74 0-3.481.204-5.12.205-1.33 1.022-2.662 1.124-3.993.102-1.638-.817-2.765.306-4.3.92-1.23 2.451-.615 2.962-1.025h.102c-.102-.307-.102-.614-.102-.819z" fill="url(#No_Buses_Found__k)" transform="translate(158.298)"/><path d="M173.31 1.638c-.306-.102-.408-.204-.816-.307-5.515-1.945-5.005 5.734-5.924 11.98-.306 2.458 0 5.12-1.225 7.373-1.124 1.945-2.758 3.072-3.268 5.427-1.022 4.403-.103 9.727-.511 14.233-.409 4.812-.817 9.42-.817 14.233.102 4.812 2.962 8.6 2.451 13.618-.306 2.867-2.247 2.355-3.37 4.608-.715 1.331-.613 3.686-.613 5.53 1.328.102 2.655-.41 3.983-1.639 2.655-2.457 1.021-5.325.817-8.294-.102-1.434.204-2.97.817-4.198.715-1.434 1.94-1.843 1.634-3.686-.204-1.024-.92-1.127-1.123-1.946-.205-.614 0-1.638 0-2.355 0-1.946 0-3.891.204-5.837.408-5.734 1.532-11.16 1.634-15.666 0-1.536.204-3.38-.102-4.71-.307-1.536-1.124-2.253-.51-3.789.612-1.536 1.838-2.15 2.144-3.89.306-1.742 0-3.687 0-5.428 0-1.74 0-3.481.204-5.12.204-1.33 1.021-2.662 1.124-3.993.102-1.638-.817-2.765.306-4.3.92-1.23 2.451-.615 2.962-1.025h.102c-.102-.307-.102-.614-.102-.819z" fill="url(#No_Buses_Found__k)"/><path d="M3.574 20.786v-.921.921z" fill="url(#No_Buses_Found__l)" transform="translate(174.638 27.647)"/><path d="M3.574 19.967v-.307.307z" fill="url(#No_Buses_Found__m)" transform="translate(174.638 27.647)"/><path d="M9.702 27.135c-1.123-2.15-3.574-3.277-4.596-5.325-.715-1.433-.919-3.276-.817-5.12-.204 1.024.102-1.024 0 0-1.532 2.56-1.94 10.65 1.124 12.083 1.123.512 2.961-.41 4.085.102 1.021.512 1.43 1.844 1.634 2.868.51 2.252 1.021 4.607 1.021 6.962.102-1.638-.306-3.379-.51-5.017-.409-2.253-.92-4.608-1.94-6.553z" fill="url(#No_Buses_Found__n)" transform="translate(174.638 27.647)"/><path d="M4.596 12.287c.102-1.638.204-3.174 0-4.505-.307-2.355-2.043-3.993-2.451-6.246-.102-.41-.102-.922-.102-1.331C1.02.615.409 1.74 1.02 3.686c.409 1.536 1.634 2.355 2.043 3.891.408 1.434 1.123 2.663 1.43 4.096 0 .205 0 .41.102.614z" fill="url(#No_Buses_Found__o)" transform="translate(174.638 27.647)"/><path d="M206.4 127.994c-6.74-1.126-13.685-1.024-15.013-1.229-2.144-.41-5.719 2.663-7.455 2.253-2.043-.512-1.328-.512-1.736-.922-.715-.512 2.144-2.867-2.043-3.481-1.123-.205-5.617-1.024-6.536-1.229-1.226-.205-5.208-.614-6.434-.819-2.553-.41-3.37.102-4.698.205-3.268-.717-12.766-4.3-16.34-4.915-.817 0-2.554.205-3.268.205 2.45.512 13.991 4.3 15.523 4.812-1.532 0-5.515 1.127-6.128 1.331-.612.205-.102.512-2.961.103-2.35-.307-3.78-.82-6.434-1.127-2.145-.307-3.473-.307-4.494-.204-3.677-.615-5.209-1.434-8.987-2.253-.307.102-3.881-.102-3.37.205.204.102 3.165.717 4.8 1.024 3.063.716 6.025 1.33 7.557 1.945 1.634.615 1.838.922 4.8 1.74 1.328.308 3.472.718 4.698 1.025 1.021.307.919.41 1.736.717 1.838.614 9.294 2.15 12.664 2.662 5.31.82 10.008 1.229 15.523 2.355 2.962.614 16.34 3.993 27.37 5.734.511-3.379.92-6.758 1.226-10.137z" fill="url(#No_Buses_Found__p)" opacity=".58"/></g></svg>