<svg viewBox="0 0 240 183" xmlns="http://www.w3.org/2000/svg"><defs><linearGradient x1="50.029%" y1="-.065%" x2="50.029%" y2="99.886%" id="No_Trains_Found__a"><stop stop-color="#DEEAF7" offset="5.348%"/><stop stop-color="#DEEAF7" stop-opacity="0" offset="100%"/></linearGradient><linearGradient x1="50.002%" y1=".097%" x2="50.002%" y2="100.084%" id="No_Trains_Found__b"><stop stop-color="#CCE1F4" offset="0%"/><stop stop-color="#D1E3F5" offset="35.2%"/><stop stop-color="#DEEAF7" offset="73.8%"/></linearGradient><linearGradient x1=".06%" y1="49.992%" x2="100.027%" y2="49.992%" id="No_Trains_Found__c"><stop stop-color="#7DA5D4" offset="32.8%"/><stop stop-color="#7DA5D4" offset="45.7%"/></linearGradient><linearGradient x1="-.025%" y1="48.564%" x2="99.939%" y2="48.564%" id="No_Trains_Found__d"><stop stop-color="#BFD2E8" offset="28.93%"/><stop stop-color="#BFD2E8" stop-opacity=".086" offset="93.89%"/><stop stop-color="#BFD2E8" stop-opacity="0" offset="100%"/></linearGradient><linearGradient x1="49.988%" y1=".104%" x2="49.988%" y2="99.995%" id="No_Trains_Found__e"><stop stop-color="#9CBADC" offset="0%"/><stop stop-color="#B1C9E4" offset="24.59%"/><stop stop-color="#BFD3EA" offset="47.06%"/></linearGradient><linearGradient x1="0%" y1="49.883%" y2="49.883%" id="No_Trains_Found__f"><stop stop-color="#F6B2B3" stop-opacity="0" offset="0%"/><stop stop-color="#F48F90" offset="100%"/></linearGradient><linearGradient x1="49.991%" y1="-.076%" x2="49.991%" y2="99.755%" id="No_Trains_Found__g"><stop stop-color="#5E8EC8" offset="2.139%"/><stop stop-color="#5E8EC8" offset="23.58%"/><stop stop-color="#79A1D1" offset="37.47%"/><stop stop-color="#9CBADC" offset="57.24%"/><stop stop-color="#9CBADC" stop-opacity="0" offset="100%"/></linearGradient><linearGradient x1="-.077%" y1="49.905%" x2="100.09%" y2="49.905%" id="No_Trains_Found__h"><stop stop-color="#252E65" offset="3.59%"/><stop stop-color="#252E65" offset="10.77%"/></linearGradient><linearGradient x1="-.042%" y1="50.014%" x2="100.112%" y2="50.014%" id="No_Trains_Found__i"><stop stop-color="#5984BD" offset="0%"/><stop stop-color="#5984BD" stop-opacity=".4" offset="54.87%"/></linearGradient><linearGradient x1=".06%" y1="50.396%" x2="100.197%" y2="50.396%" id="No_Trains_Found__j"><stop stop-color="#5984BD" offset="0%"/><stop stop-color="#5984BD" stop-opacity=".4" offset="54.87%"/></linearGradient><linearGradient x1=".313%" y1="49.883%" x2="100.133%" y2="49.883%" id="No_Trains_Found__k"><stop stop-color="#425685" offset="0%"/><stop stop-color="#445989" offset="4.458%"/><stop stop-color="#4F71A5" offset="42.54%"/><stop stop-color="#567FB7" offset="75.68%"/><stop stop-color="#5984BD" offset="100%"/></linearGradient><linearGradient x1="50.115%" y1=".075%" x2="50.115%" y2="100.222%" id="No_Trains_Found__l"><stop stop-color="#7DA5D4" offset="0%"/><stop stop-color="#FBD9D9" offset="88.83%"/></linearGradient><linearGradient x1="49.946%" y1="-.029%" x2="49.946%" y2="100.207%" id="No_Trains_Found__m"><stop stop-color="#5E8EC8" offset="66.84%"/><stop stop-color="#6492CA" stop-opacity=".871" offset="71.05%"/><stop stop-color="#739DCE" stop-opacity=".707" offset="76.4%"/><stop stop-color="#8DAFD6" stop-opacity=".524" offset="82.37%"/><stop stop-color="#B2C9E1" stop-opacity=".328" offset="88.79%"/><stop stop-color="#E0E9F0" stop-opacity=".122" offset="95.5%"/><stop stop-color="#FFFFF9" stop-opacity="0" offset="99.49%"/></linearGradient><linearGradient x1="50.058%" y1="-.25%" x2="50.058%" y2="100.166%" id="No_Trains_Found__n"><stop stop-color="#5984BD" offset="29.74%"/><stop stop-color="#5984BD" stop-opacity="0" offset="100%"/></linearGradient><linearGradient x1="49.996%" y1="-.37%" x2="49.996%" y2="100.179%" id="No_Trains_Found__o"><stop stop-color="#5984BD" offset="0%"/><stop stop-color="#5881BA" offset="31.66%"/><stop stop-color="#5479B0" offset="55.87%"/><stop stop-color="#5072A8" offset="68.21%"/></linearGradient><linearGradient x1="-.17%" y1="50.264%" x2="99.885%" y2="50.264%" id="No_Trains_Found__p"><stop stop-color="#5984BD" offset="29.74%"/><stop stop-color="#5984BD" offset="54.87%"/></linearGradient><linearGradient x1="1.1%" y1="78.555%" x2="99.254%" y2="22.69%" id="No_Trains_Found__q"><stop stop-color="#5984BD" offset="29.74%"/><stop stop-color="#5984BD" offset="54.87%"/></linearGradient><linearGradient x1="48.789%" y1="-28.532%" x2="51.255%" y2="127.471%" id="No_Trains_Found__r"><stop stop-color="#5984BD" offset="0%"/><stop stop-color="#5881BA" offset="31.66%"/><stop stop-color="#5479B0" offset="55.87%"/><stop stop-color="#5072A8" offset="68.21%"/></linearGradient><linearGradient x1=".292%" y1="49.185%" x2="100.259%" y2="49.185%" id="No_Trains_Found__s"><stop stop-color="#A1A7C2" offset="3.077%"/><stop stop-color="#A1A7C2" offset="19.49%"/></linearGradient><linearGradient x1="49.883%" y1=".24%" x2="49.883%" y2="92.51%" id="No_Trains_Found__t"><stop stop-color="#5984BD" offset="29.74%"/><stop stop-color="#5984BD" offset="54.87%"/></linearGradient><linearGradient x1="49.64%" y1="-.698%" x2="49.64%" y2="99.904%" id="No_Trains_Found__u"><stop stop-color="#FBD9D9" offset="0%"/><stop stop-color="#FBD8D8" offset=".815%"/><stop stop-color="#F6B2B3" offset="44.62%"/><stop stop-color="#E6AEB5" offset="51.34%"/><stop stop-color="#BBA4BB" offset="64.53%"/><stop stop-color="#7894C4" offset="82.74%"/><stop stop-color="#5E8EC8" offset="89.23%"/></linearGradient><linearGradient x1="50.013%" y1="-.123%" x2="50.013%" y2="100.049%" id="No_Trains_Found__v"><stop stop-color="#7DA5D4" offset="0%"/><stop stop-color="#FBD9D9" offset="88.83%"/></linearGradient><linearGradient x1="-.266%" y1="49.585%" x2="99.854%" y2="49.585%" id="No_Trains_Found__w"><stop stop-color="#FBD9D9" offset="0%"/><stop stop-color="#E5CFD7" offset="11.52%"/><stop stop-color="#84A0CC" offset="65.14%"/><stop stop-color="#5E8EC8" offset="89.23%"/></linearGradient><linearGradient x1="-.022%" y1="50.091%" x2="100.024%" y2="50.091%" id="No_Trains_Found__x"><stop stop-color="#9CBADC" offset="0%"/><stop stop-color="#5E8EC8" offset="41.71%"/><stop stop-color="#5E8EC8" stop-opacity="0" offset="100%"/></linearGradient><linearGradient x1="50.093%" y1="24.55%" x2="50.093%" y2="76.16%" id="No_Trains_Found__y"><stop stop-color="#5984BD" offset="29.74%"/><stop stop-color="#5984BD" offset="54.87%"/></linearGradient><linearGradient x1=".255%" y1="50.114%" x2="100.393%" y2="50.114%" id="No_Trains_Found__z"><stop stop-color="#A1A7C2" offset="3.077%"/><stop stop-color="#A1A7C2" offset="19.49%"/></linearGradient><linearGradient x1="49.977%" y1="-.023%" x2="49.977%" y2="100.102%" id="No_Trains_Found__A"><stop stop-color="#7DA5D4" offset="0%"/><stop stop-color="#B1BAD6" offset="28.18%"/><stop stop-color="#FBD9D9" offset="65.3%"/><stop stop-color="#FBD9D9" offset="100%"/></linearGradient><linearGradient x1=".293%" y1="50.485%" x2="100.501%" y2="50.485%" id="No_Trains_Found__B"><stop stop-color="#A1A7C2" offset="3.077%"/><stop stop-color="#A1A7C2" offset="19.49%"/></linearGradient><linearGradient x1="50.057%" y1="-.57%" x2="50.057%" y2="99.475%" id="No_Trains_Found__C"><stop stop-color="#5984BD" offset="0%"/><stop stop-color="#5881BA" offset="31.66%"/><stop stop-color="#5479B0" offset="55.87%"/><stop stop-color="#5072A8" offset="68.21%"/></linearGradient><linearGradient x1="41.253%" y1="49.31%" x2="60.043%" y2="49.31%" id="No_Trains_Found__D"><stop stop-color="#242F65" stop-opacity="0" offset="0%"/><stop stop-color="#242F65" offset="96.28%"/></linearGradient><linearGradient x1="-.445%" y1="50.131%" x2="99.968%" y2="50.131%" id="No_Trains_Found__E"><stop stop-color="#384B7D" offset="0%"/><stop stop-color="#3A4E80" offset="2.864%"/><stop stop-color="#547BB2" offset="51.55%"/><stop stop-color="#5E8CC6" offset="75.53%"/></linearGradient><linearGradient x1="49.7%" y1="-.126%" x2="49.7%" y2="99.962%" id="No_Trains_Found__F"><stop stop-color="#F7B3B4" offset="21.28%"/><stop stop-color="#F7AEAF" offset="46.74%"/><stop stop-color="#F5A1A2" offset="75.17%"/><stop stop-color="#F48F90" offset="100%"/></linearGradient><linearGradient x1="49.713%" y1="-.125%" x2="49.713%" y2="99.955%" id="No_Trains_Found__G"><stop stop-color="#9DBBDE" offset="25.67%"/><stop stop-color="#90B2DA" offset="44.73%"/><stop stop-color="#82A8D6" offset="74.48%"/><stop stop-color="#7DA5D4" offset="100%"/></linearGradient><linearGradient x1="50%" y1=".048%" x2="50%" y2="99.823%" id="No_Trains_Found__H"><stop stop-color="#9CBADC" offset="0%"/><stop stop-color="#B1C9E4" offset="24.59%"/><stop stop-color="#BFD3EA" offset="47.06%"/></linearGradient><linearGradient x1=".117%" y1="49.819%" x2="100.117%" y2="49.819%" id="No_Trains_Found__I"><stop stop-color="#F6B2B3" offset="0%"/><stop stop-color="#F9C6C6" offset="18.29%"/><stop stop-color="#FAD4D4" offset="37.81%"/><stop stop-color="#FBD9D9" offset="54.55%"/></linearGradient><linearGradient x1="50.145%" y1="-.128%" x2="50.145%" y2="99.832%" id="No_Trains_Found__J"><stop stop-color="#7DA5D4" offset="0%"/><stop stop-color="#82A8D6" offset="25.52%"/><stop stop-color="#90B2DA" offset="55.27%"/><stop stop-color="#9DBBDE" offset="74.33%"/></linearGradient><linearGradient x1="50.325%" y1=".068%" x2="50.325%" y2="99.932%" id="No_Trains_Found__K"><stop stop-color="#9DBBDE" offset="25.67%"/><stop stop-color="#90B2DA" offset="44.73%"/><stop stop-color="#82A8D6" offset="74.48%"/><stop stop-color="#7DA5D4" offset="100%"/></linearGradient><linearGradient x1=".118%" y1="52.667%" x2="100.161%" y2="52.667%" id="No_Trains_Found__L"><stop stop-color="#F7B3B4" offset="21.28%"/><stop stop-color="#F7AEAF" offset="46.74%"/><stop stop-color="#F5A1A2" offset="75.17%"/><stop stop-color="#F48F90" offset="100%"/></linearGradient><linearGradient x1="49.984%" y1=".103%" x2="49.984%" y2="99.659%" id="No_Trains_Found__M"><stop stop-color="#5984BD" offset="0%"/><stop stop-color="#5881BA" offset="31.66%"/><stop stop-color="#5479B0" offset="55.87%"/><stop stop-color="#5072A8" offset="68.21%"/></linearGradient><linearGradient x1="50%" y1="0%" x2="50%" y2="100%" id="No_Trains_Found__N"><stop stop-color="#FBD9D9" stop-opacity="0" offset="0%"/><stop stop-color="#FBDADA" stop-opacity=".015" offset=".816%"/><stop stop-color="#FDEFEF" stop-opacity=".348" offset="18.95%"/><stop stop-color="#FFFBFB" stop-opacity=".678" offset="36.92%"/><stop stop-color="#FFF" offset="54.42%"/></linearGradient></defs><g fill="none" fill-rule="evenodd"><path d="M195.349 86.925c-1.228-.781-2.01-1.45-3.572-1.45-2.344-22.206-27.572-20.644-37.619-37.493-2.01-3.46-3.014-10.712-5.581-13.502-4.689-4.91.558-3.236-4.689-5.914-6.586-3.348-16.855-12.163-25.116-15.064C96.558 5.69 89.637 30.352 76.02 40.505c-8.372 6.25-18.307 8.593-23.666 18.858C47.22 69.071 49.005 79.895 48 90.496c-.558 6.472-6.14 18.523-.112 24.549 5.805 5.69 25.34 1.562 32.707.892 17.526-1.674 35.163-3.347 52.8-5.021 21.21-2.12 35.721-11.828 54.252-20.086" fill="url(#No_Trains_Found__a)"/><path d="M49.116 116.049c.558-26.78 13.954-57.69 40.186-68.179 8.819-3.459 22.103 2.009 29.47-4.463 9.265-7.923 9.154-22.317 19.981-32.472 38.847-36.265 72.782 32.583 79.145 45.639 1.786 3.57 1.116 8.927 3.349 12.274 2.567 3.906 7.813 4.798 10.939 7.7 8.037 7.587 8.819 15.956 5.805 26.222-3.238 11.27-9.042 16.068-19.312 21.201-20.316 10.043-41.079 9.82-63.293 9.82-17.079 0-37.619-5.803-53.805-1.116" fill="url(#No_Trains_Found__b)"/><path d="M233.302 61.26c-1.786-5.802-2.232-7.141-9.711-6.695-1.675.112-2.903.67-4.577-.111-2.01-.893-2.567-3.348-4.688-4.129-2.568-1.004-6.14-.223-8.819-.446-6.474-22.652-24.112-12.052-36.28-16.961-4.241-1.786-7.032-3.125-12.501-5.691-5.135-2.343-7.591-3.57-12.614-1.786-.893-2.9-.335-5.356-2.121-7.81-2.01-2.902-4.019-.782-6.363-2.79-6.251-5.468-2.902-8.48-10.047-12.832-4.465-2.679-11.497-.893-13.618 3.236-1.563 3.124.111 5.579-3.46 6.471-3.015.782-6.14-1.004-9.266-.111-5.023 1.45-6.363 5.58-6.474 10.266-3.126.892-5.023 3.347-5.693 6.36-.893 3.794 1.45 4.798 2.679 8.146 1.563 4.352-1.005 3.57-3.684 5.356-2.79 1.785-3.125 4.575-3.907 7.476-7.032-2.12-12.837 6.026-13.172 9.931-3.126-1.45-4.577-2.455-9.488-1.116-3.238.893-5.805 2.902-7.814 5.356l181.618-2.12z" fill="url(#No_Trains_Found__c)" transform="translate(0 53.561)"/><path d="M144.447 2.343l87.18 1.228" fill="url(#No_Trains_Found__d)" transform="translate(0 114.933)"/><path d="M134.958.781l99.126-.335s-20.317 16.738-14.065 26.558c13.395 21.09-38.512 35.93-56.596 37.27C234.195 25.998 135.293 1.338 134.958.78z" fill="url(#No_Trains_Found__e)" transform="translate(0 114.933)"/><path d="M138.53.893L51.795 2.12c-.335.112.224-.223 0-.111 3.796 12.162 25.786 8.257 24.893 23.544-.67 11.27-65.302 15.845-70.995 26 1.34 1.115 2.344 3.235 3.349 4.24-2.121 1.785-3.907 5.244-6.586 6.583 11.497-.223 34.94-.446 53.47-1.674 25.562-1.673 87.962-24.102 108.39-31.69 16.856-6.249 5.024-21.09-25.786-28.12z" fill="url(#No_Trains_Found__f)" transform="translate(0 114.933)"/><path d="M.781 60.926s109.284-18.97 137.414-27.116c25.786-7.476 55.033-10.712 6.252-31.467l7.59.67s57.6 9.15 48.782 41.175c-1.452 5.244-5.693 10.266-9.377 13.948-1.34.223-20.316 9.931-90.195 9.485C69.32 67.286 26.12 61.037.78 60.926z" fill="url(#No_Trains_Found__g)" transform="translate(0 114.933)"/><path d="M194.01 23.656s5.023 9.262 2.455 16.18c-2.567 6.918-11.386 15.51-21.656 22.763l-10.604 1.674s27.014-15.287 30.14-26.11c2.79-9.932-.336-14.507-.336-14.507z" fill="url(#No_Trains_Found__h)" opacity=".36" transform="translate(0 114.933)"/><path fill="url(#No_Trains_Found__i)" d="M140.093 40.952l-1.898.558 32.819 10.6 1.563-.78v-.559z" transform="translate(0 114.933)"/><path d="M115.87 47.87s-1.451.112-2.344.558l38.623 12.944 1.786-.781-2.233-1.228L115.87 47.87z" fill="url(#No_Trains_Found__j)" transform="translate(0 114.933)"/><path d="M195.907 29.682l-.112 4.463s-.223 14.618-31.702 30.128l-9.823 1.116s29.246-14.171 37.172-26.669c4.242-5.58 4.465-9.038 4.465-9.038z" fill="url(#No_Trains_Found__k)" transform="translate(0 114.933)"/><path d="M148.688 2.343l-2.679-.334c20.317 4.463 65.191 16.96 42.642 39.054-9.488 8.48-44.204 23.88-46.772 24.996l12.614-1.005s31.367-15.956 37.284-24.437c20.986-27.673-43.089-38.274-43.089-38.274z" fill="url(#No_Trains_Found__l)" transform="translate(0 114.933)"/><path d="M30.251 62.488l12.28 1.116s28.576-5.245 46.102-9.15c15.74-3.571 35.162-8.48 51.46-13.502 18.084-5.691 32.372-11.605 34.27-17.073 0-.446.223-2.12.223-2.455-6.028 18.858-144.335 41.064-144.335 41.064z" fill="url(#No_Trains_Found__m)" transform="translate(0 114.933)"/><path fill="url(#No_Trains_Found__n)" d="M86.512 53.673l.111 1.227 30.921 12.051 2.68-.223z" transform="translate(0 114.933)"/><path fill="url(#No_Trains_Found__o)" d="M115.535 46.643l.112 1.227 38.288 12.72 2.01-.892z" transform="translate(0 114.933)"/><path fill="url(#No_Trains_Found__p)" opacity=".51" d="M156.726 35.15l-1.228.557 30.474 7.477 1.116-.67z" transform="translate(0 114.933)"/><path fill="url(#No_Trains_Found__q)" opacity=".51" d="M167.888 29.793l-1.228.781 27.014 3.794.335-.892z" transform="translate(0 114.933)"/><path fill="url(#No_Trains_Found__r)" d="M168.112 29.124v.67l25.897 3.682.335-1.34z" transform="translate(0 114.933)"/><path fill="url(#No_Trains_Found__s)" opacity=".38" d="M180.949 13.613l-10.382 1.228-1.227-1.004 9.823-1.228z" transform="translate(0 114.933)"/><path d="M174.251 23.768l-.111.558c5.58 0 16.074.558 19.2.558-.112 0-.559-1.005-.559-1.005" fill="url(#No_Trains_Found__t)" opacity=".22" transform="translate(0 114.933)"/><path d="M156.614 21.424c1.116-2.12.112-3.682-.447-4.798-6.697-8.48-25.116-15.399-25.116-15.399l-1.34-.111s18.42 8.704 23.442 13.502c3.573 3.459 3.684 4.463 3.461 6.806z" fill="url(#No_Trains_Found__u)" transform="translate(16.744 116.049)"/><path d="M13.172 61.484s36.949-6.026 68.763-13.056c11.832-2.678 24-5.802 35.832-8.927 14.624-3.794 38.624-11.27 39.852-18.97 1.562-8.703-27.684-19.75-27.907-19.527l-1.228-.223s11.386 3.682 22.883 11.605c4.577 4.017 11.386 9.038-5.023 15.399C123.126 37.38 68.651 47.647 1.004 60.59" fill="url(#No_Trains_Found__v)" transform="translate(16.744 116.049)"/><path d="M45.99 29.012c-.11.67-.334 2.343-.334 2.343.67-1.45 3.014-8.257-5.805-15.621C30.586 8.034 10.605 3.013.558.112c14.177 3.682 47.219 12.609 45.433 28.9z" transform="translate(148.465 117.165)" fill="url(#No_Trains_Found__w)"/><path d="M128.149 1.116c3.237 0 31.59 4.798 42.307 18.077l12.279-6.695c0 .111-23.442-12.386-54.586-11.382z" fill="url(#No_Trains_Found__x)" transform="translate(0 114.933)"/><path fill="url(#No_Trains_Found__y)" opacity=".51" d="M174.363 23.21l-.112.558 18.53.111.112-.558z" transform="translate(0 114.933)"/><path fill="url(#No_Trains_Found__z)" opacity=".22" d="M176.484 11.27l-8.26 1.674-1.229-.893 7.703-1.562z" transform="translate(0 114.933)"/><path d="M94.326 51.999c29.134 10.824 41.637 13.278 47.665 14.171-2.121 0-21.656.558-21.656.558L86.623 53.673l7.703-1.674zm21.209-5.356l40.744 13.167 6.028-2.567v-.223l-40.298-11.94-6.474 1.563zm41.19-12.275l30.363 8.146 1.34-1.116s2.79-2.566 2.79-2.901c-5.023-.781-30.809-5.58-30.809-5.58l-3.683 1.451zm11.387-5.244s26.12 3.236 26.12 3.124c.335-1.116.224-2.455.224-2.455l-24.223-2.12-2.121 1.45zm16.744-13.279l-12.39.893 1.339 1.897 13.842-.781-2.791-2.009zm-10.382 5.58s.112.669-.223 1.896h18.642l-1.451-2.008-16.968.111zm-35.832 18.969l35.61 10.043 4.576-2.567L144 38.832l-5.358 1.562z" fill="url(#No_Trains_Found__A)" fill-rule="nonzero" transform="translate(0 114.933)"/><path fill="url(#No_Trains_Found__B)" opacity=".14" d="M165.656 11.159l7.144-1.563-1.674-.67-6.475 1.675z" transform="translate(0 114.933)"/><path fill="url(#No_Trains_Found__C)" d="M156.726 34.368v.781l30.362 7.365 1.117-1.004z" transform="translate(0 114.933)"/><g opacity=".34"><path d="M87.74 35.707c.334-.223.223-.223 0 0z" fill="url(#No_Trains_Found__D)" transform="translate(56.93 54.677)"/><path d="M108.949 60.59c-.447-4.909-.335-14.394 6.81-13.278.892-5.69-6.81-4.91-10.047-7.253-3.572-2.455-4.912-9.82-7.926-10.154.781 6.36-8.484 13.167-9.935 5.69-3.46 3.906-10.046-1.004-5.358-4.574-7.256-.223-6.251 7.7-11.051 8.815-8.037 1.785-6.475-7.588-6.363-11.382 0-4.352.893-1.785-2.456-5.467-2.567-2.678-5.246-4.575-6.25-8.816C55.143 9.485 56.036 4.13 59.05.446c-1.563.893-2.902 2.009-3.572 3.46-1.563 3.124.112 5.579-3.46 6.471-2.01.558-4.019-.111-6.14-.223-.67.781-1.563 1.34-2.902 2.009 2.567 2.12 6.809 3.459 7.367 7.03.447 2.566-.67 4.91-2.902 5.467 2.232 0 4.688 1.451 4.018 4.129-.78 3.348-4.241 3.124-8.037 2.343-2.12-.446-5.023-2.008-7.032.447-2.233 2.678 1.34 5.802.781 8.369-1.786 9.707-11.163 9.373-18.865 9.596-3.349 2.455-4.912 4.686-5.693 8.592-4.13-1.45-4.465-2.455-9.488-1.116a11.42 11.42 0 0 0-2.345.893 22.026 22.026 0 0 1 5.693 4.352l103.814-1.228c-.67-.558-1.34.112-1.34-.446z" fill="url(#No_Trains_Found__E)" transform="translate(56.93 54.677)"/></g><path fill="url(#No_Trains_Found__F)" d="M8.26.558h10.605v33.587H8.26z" transform="translate(171.907 66.951)"/><path fill="url(#No_Trains_Found__G)" d="M.781.558H8.26V34.48H.781z" transform="translate(171.907 66.951)"/><path fill="url(#No_Trains_Found__H)" d="M220.577 46.531V31.355h-14.065v22.206H176.26l.112 8.927 57.712-.558-.224-15.399z" transform="translate(0 53.561)"/><path fill="url(#No_Trains_Found__I)" d="M206.512 53.561L194.12 42.068h-29.805L176.26 53.56z" transform="translate(0 53.561)"/><path fill="url(#No_Trains_Found__J)" d="M164.316 42.068L152.26 53.896l.112 8.592 24 .223-.112-9.15-11.944-11.493" transform="translate(0 53.561)"/><path fill="url(#No_Trains_Found__K)" d="M206.512 31.355v22.206L194.12 42.068V32.47z" transform="translate(0 53.561)"/><path fill="#9DBBDE" d="M233.86 100.092l-13.283-8.815v8.815z"/><path fill="url(#No_Trains_Found__L)" d="M194.121 30.016h26.456v2.343h-26.456z" transform="translate(0 53.561)"/><path d="M172.688 67.51c.67 0 7.926-4.464 8.707-8.928 0 0 3.35 6.695 9.377 8.927h-18.084z" fill="#5E8FCA"/><path fill="url(#No_Trains_Found__M)" d="M138.642 101.766l.111 1.004 33.824 9.931 1.674-.892z" transform="translate(0 53.561)"/><ellipse fill="url(#No_Trains_Found__N)" cx="156.837" cy="42.96" rx="12.837" ry="12.832"/></g></svg>